<svg width="134" height="36" viewBox="0 0 134 36" fill="none" xmlns="http://www.w3.org/2000/svg">
<g clip-path="url(#clip0_102_45)">
<path d="M75.1053 24.4072H71.6964C71.6002 24.4072 71.516 24.3286 71.516 24.2258V19.914H71.4559C71.4559 22.3632 69.5139 24.8426 66.4958 24.8426C62.4977 24.8426 60.0327 21.196 60.0327 17.4043C60.0327 13.6126 62.4977 9.96607 66.4958 9.96607C69.5079 9.96607 71.4559 12.4455 71.4559 14.8947H71.516L72.3577 10.5466C72.3757 10.462 72.4479 10.4015 72.5321 10.4015H75.1053C75.2015 10.4015 75.2857 10.4801 75.2857 10.5829V24.2197C75.2857 24.3165 75.2075 24.4011 75.1053 24.4011V24.4072ZM67.6021 21.6375C70.1512 21.6375 71.516 19.6237 71.516 17.4104C71.516 15.197 70.0971 13.1833 67.6021 13.1833C65.107 13.1833 63.8023 15.0761 63.8023 17.4104C63.8023 19.7447 64.9928 21.6375 67.6021 21.6375Z" fill="white"/>
<path d="M43.451 28.9004H46.86C46.9561 28.9004 47.0403 28.8218 47.0403 28.719V19.908H47.1004C47.1004 22.3571 49.0424 24.8366 52.0605 24.8366C56.0586 24.8366 58.5236 21.19 58.5236 17.3983C58.5236 13.6066 56.0586 9.96003 52.0605 9.96003C49.0484 9.96003 47.1004 12.4394 47.1004 14.8886H47.0403L46.1986 10.5406C46.1806 10.4559 46.1084 10.3954 46.0243 10.3954H43.451C43.3548 10.3954 43.2707 10.4741 43.2707 10.5769V28.7129C43.2707 28.8097 43.3488 28.8943 43.451 28.8943V28.9004ZM50.9543 21.6375C48.4051 21.6375 47.0403 19.6237 47.0403 17.4104C47.0403 15.1971 48.4592 13.1833 50.9543 13.1833C53.4493 13.1833 54.754 15.0761 54.754 17.4104C54.754 19.7447 53.5636 21.6375 50.9543 21.6375Z" fill="white"/>
<path d="M76.8067 13.5824V10.589C76.8067 10.4922 76.8849 10.4075 76.9871 10.4075H79.416V10.3773L80.2517 6.75492C80.2698 6.6763 80.3419 6.61583 80.4261 6.61583H83.0053C83.1015 6.61583 83.1857 6.69445 83.1857 6.79725V10.4075H87.6467C87.7429 10.4075 87.8271 10.4861 87.8271 10.589V13.5824C87.8271 13.6792 87.7489 13.7638 87.6467 13.7638H83.1857V19.7144C83.1857 20.9662 83.7929 21.4924 84.6346 21.4924C85.795 21.4924 86.2098 20.4885 86.2279 17.8821C86.2279 17.7853 86.306 17.7007 86.4082 17.7007H89.0897C89.1919 17.7007 89.27 17.7853 89.27 17.8881C89.2039 22.4902 86.769 24.8487 83.8771 24.8487C80.9852 24.8487 79.41 22.3692 79.41 19.92V13.7699H76.9811C76.8849 13.7699 76.8007 13.6913 76.8007 13.5884L76.8067 13.5824Z" fill="white"/>
<path d="M105.503 24.4072H102.094C101.998 24.4072 101.914 24.3286 101.914 24.2258V19.914H101.854C101.854 22.3632 99.9116 24.8426 96.8935 24.8426C92.8954 24.8426 90.4304 21.196 90.4304 17.4043C90.4304 13.6126 92.8954 9.96607 96.8935 9.96607C99.9056 9.96607 101.854 12.4455 101.854 14.8947H101.914L102.755 10.5466C102.773 10.462 102.846 10.4015 102.93 10.4015H105.503C105.599 10.4015 105.683 10.4801 105.683 10.5829V24.2197C105.683 24.3165 105.605 24.4011 105.503 24.4011V24.4072ZM97.9938 21.6375C100.543 21.6375 101.908 19.6237 101.908 17.4104C101.908 15.197 100.489 13.1833 97.9938 13.1833C95.4987 13.1833 94.194 15.0761 94.194 17.4104C94.194 19.7447 95.3845 21.6375 97.9938 21.6375Z" fill="white"/>
<path d="M107.421 24.2258V10.589C107.421 10.4922 107.499 10.4075 107.601 10.4075H110.174C110.259 10.4075 110.331 10.468 110.349 10.5527L111.191 14.9007H111.251C111.251 12.4515 113.193 9.97212 116.211 9.97212C117.437 9.97212 118.513 10.2563 119.409 10.7522C119.499 10.8006 119.529 10.9216 119.469 11.0123L117.624 13.915C117.569 14.0057 117.443 14.0299 117.365 13.9634C116.89 13.5884 116.259 13.1833 115.11 13.1833C112.615 13.1833 111.197 15.197 111.197 17.4104V24.2318C111.197 24.3286 111.118 24.4132 111.016 24.4132H107.607C107.511 24.4132 107.427 24.3346 107.427 24.2318L107.421 24.2258Z" fill="white"/>
<path d="M133.766 24.4072H130.357C130.261 24.4072 130.177 24.3286 130.177 24.2258V19.914H130.117C130.117 22.3632 128.175 24.8426 125.157 24.8426C121.159 24.8426 118.694 21.196 118.694 17.4043C118.694 13.6126 121.159 9.96607 125.157 9.96607C128.169 9.96607 130.117 12.4455 130.117 14.8947H130.177L131.019 10.5466C131.037 10.462 131.109 10.4015 131.193 10.4015H133.766C133.863 10.4015 133.947 10.4801 133.947 10.5829V24.2197C133.947 24.3165 133.869 24.4011 133.766 24.4011V24.4072ZM126.263 21.6375C128.812 21.6375 130.177 19.6237 130.177 17.4104C130.177 15.197 128.758 13.1833 126.263 13.1833C123.768 13.1833 122.463 15.0761 122.463 17.4104C122.463 19.7447 123.654 21.6375 126.263 21.6375Z" fill="white"/>
<path d="M17.8923 35.9939C27.774 35.9939 35.7846 27.9364 35.7846 17.997C35.7846 8.05752 27.774 0 17.8923 0C8.01066 0 0 8.05752 0 17.997C0 27.9364 8.01066 35.9939 17.8923 35.9939Z" fill="#006EFF"/>
<path d="M17.8923 9.94793C13.4733 9.94793 9.89007 13.5522 9.89007 17.997C9.89007 18.0998 9.9021 18.2026 9.90811 18.3054C9.90811 18.3296 9.89007 18.3538 9.89007 18.378V34.0951C14.309 34.0951 17.8923 30.4908 17.8923 26.046C22.3113 26.046 25.8946 22.4418 25.8946 17.997C25.8946 13.5522 22.3113 9.94793 17.8923 9.94793Z" fill="white"/>
<path d="M20.3573 16.1404C21.3767 16.1404 22.2031 15.3092 22.2031 14.2839C22.2031 13.2585 21.3767 12.4273 20.3573 12.4273C19.3379 12.4273 18.5116 13.2585 18.5116 14.2839C18.5116 15.3092 19.3379 16.1404 20.3573 16.1404Z" fill="#006EFF"/>
</g>
<defs>
<clipPath id="clip0_102_45">
<rect width="134" height="36" fill="white"/>
</clipPath>
</defs>
</svg>
